<?xml version="1.0" encoding="UTF-8"?><svg xmlns="http://www.w3.org/2000/svg" xmlns:xlink="http://www.w3.org/1999/xlink" width="375pt" zoomAndPan="magnify" viewBox="0 0 375 374.999991" height="374.999991pt" preserveAspectRatio="xMidYMid meet" version="1.2"><defs><clipPath xml:id="clip1" id="clip1"><path d="M 137 118 L 238 118 L 238 257 L 137 257 Z M 137 118 "/></clipPath><clipPath xml:id="clip2" id="clip2"><path d="M 216.84375 143.253906 C 217.042969 147.382812 217.546875 151.476562 218.359375 155.527344 C 219.390625 159.851562 219.96875 164.238281 220.09375 168.683594 C 220.09375 179.757812 214.039062 185.292969 204.527344 187.371094 L 204.527344 187.722656 C 214.039062 189.617188 220.09375 195.503906 220.09375 206.566406 C 219.980469 211.011719 219.402344 215.394531 218.359375 219.71875 C 217.546875 223.832031 217.042969 227.984375 216.84375 232.171875 C 216.84375 241.851562 222.039062 247.054688 234.148438 247.222656 L 237.8125 247.222656 L 237.8125 256.734375 L 233.285156 256.734375 C 215.550781 256.734375 201.929688 250.515625 201.929688 233.023438 C 202.082031 228.242188 202.660156 223.515625 203.664062 218.839844 C 204.675781 214.226562 205.265625 209.558594 205.429688 204.835938 C 205.429688 199.507812 203.304688 192.113281 188.152344 192.042969 L 187.917969 192.042969 C 172.640625 192.199219 170.417969 199.535156 170.417969 204.835938 C 170.539062 209.5625 171.101562 214.234375 172.097656 218.851562 C 173.128906 223.527344 173.722656 228.253906 173.875 233.039062 C 173.875 250.515625 159.90625 256.75 141.726562 256.75 L 137.0625 256.75 L 137.0625 247.238281 L 140.839844 247.238281 C 153.253906 247.070312 158.574219 241.867188 158.574219 232.1875 C 158.371094 227.996094 157.855469 223.84375 157.015625 219.730469 C 155.957031 215.410156 155.367188 211.027344 155.253906 206.578125 C 155.253906 195.519531 161.460938 189.632812 171.210938 187.734375 L 171.210938 187.386719 C 161.488281 185.308594 155.253906 179.769531 155.253906 168.695312 C 155.382812 164.25 155.96875 159.863281 157.015625 155.542969 C 157.855469 151.492188 158.371094 147.402344 158.574219 143.269531 C 158.574219 133.921875 153.921875 128.566406 141.0625 128.386719 L 137.0625 128.386719 L 137.0625 118.804688 L 141.546875 118.804688 C 160.390625 118.804688 173.917969 125.554688 173.917969 141.46875 C 173.753906 146.328125 173.148438 151.132812 172.097656 155.878906 C 171.085938 160.667969 170.511719 165.515625 170.375 170.410156 C 170.375 176.394531 172.542969 183.0625 187.875 183.203125 L 188.347656 183.203125 C 203.289062 183.0625 205.386719 176.394531 205.386719 170.410156 C 205.238281 165.511719 204.664062 160.664062 203.664062 155.863281 C 202.660156 151.132812 202.082031 146.347656 201.929688 141.511719 C 201.929688 125.597656 215.121094 118.84375 233.496094 118.84375 L 237.8125 118.84375 L 237.8125 128.359375 L 233.925781 128.359375 C 221.386719 128.566406 216.84375 133.910156 216.84375 143.253906 Z M 216.84375 143.253906 "/></clipPath><linearGradient x1="359.770014" gradientTransform="matrix(1.388731,0,0,1.394807,-362.562637,-220.134455)" xmlns:xlink="http://www.w3.org/1999/xlink" y1="292.45999" x2="432.320002" gradientUnits="userSpaceOnUse" y2="292.45999" xlink:type="simple" xlink:actuate="onLoad" id="linear0" xlink:show="other" xml:id="linear0"><stop style="stop-color:rgb(87.098694%,87.5%,88.999939%);stop-opacity:1;" offset="0"/><stop style="stop-color:rgb(91.998291%,72.798157%,50.20752%);stop-opacity:1;" offset="0.00390625"/><stop style="stop-color:rgb(96.899414%,58.096313%,11.4151%);stop-opacity:1;" offset="0.0078125"/><stop style="stop-color:rgb(96.899414%,58.148193%,11.424255%);stop-opacity:1;" offset="0.015625"/><stop style="stop-color:rgb(96.899414%,58.303833%,11.450195%);stop-opacity:1;" offset="0.03125"/><stop style="stop-color:rgb(96.899414%,58.512878%,11.483765%);stop-opacity:1;" offset="0.046875"/><stop style="stop-color:rgb(96.899414%,58.720398%,11.51886%);stop-opacity:1;" offset="0.0625"/><stop style="stop-color:rgb(96.899414%,58.929443%,11.553955%);stop-opacity:1;" offset="0.078125"/><stop style="stop-color:rgb(96.899414%,59.138489%,11.58905%);stop-opacity:1;" offset="0.09375"/><stop style="stop-color:rgb(96.899414%,59.346008%,11.62262%);stop-opacity:1;" offset="0.109375"/><stop style="stop-color:rgb(96.899414%,59.555054%,11.657715%);stop-opacity:1;" offset="0.125"/><stop style="stop-color:rgb(96.899414%,59.762573%,11.69281%);stop-opacity:1;" offset="0.140625"/><stop style="stop-color:rgb(96.899414%,59.971619%,11.727905%);stop-opacity:1;" offset="0.15625"/><stop style="stop-color:rgb(96.899414%,60.180664%,11.761475%);stop-opacity:1;" offset="0.171875"/><stop style="stop-color:rgb(96.903992%,60.435486%,11.810303%);stop-opacity:1;" offset="0.1875"/><stop style="stop-color:rgb(96.916199%,60.691833%,11.863708%);stop-opacity:1;" offset="0.195312"/><stop style="stop-color:rgb(96.928406%,60.902405%,11.911011%);stop-opacity:1;" offset="0.203125"/><stop style="stop-color:rgb(96.942139%,61.11145%,11.958313%);stop-opacity:1;" offset="0.210938"/><stop style="stop-color:rgb(96.954346%,61.320496%,12.005615%);stop-opacity:1;" offset="0.21875"/><stop style="stop-color:rgb(96.966553%,61.531067%,12.051392%);stop-opacity:1;" offset="0.226562"/><stop style="stop-color:rgb(96.97876%,61.740112%,12.098694%);stop-opacity:1;" offset="0.234375"/><stop style="stop-color:rgb(96.990967%,61.949158%,12.145996%);stop-opacity:1;" offset="0.242187"/><stop style="stop-color:rgb(97.0047%,62.158203%,12.193298%);stop-opacity:1;" offset="0.25"/><stop style="stop-color:rgb(97.016907%,62.368774%,12.239075%);stop-opacity:1;" offset="0.257812"/><stop style="stop-color:rgb(97.029114%,62.57782%,12.286377%);stop-opacity:1;" offset="0.265625"/><stop style="stop-color:rgb(97.041321%,62.786865%,12.333679%);stop-opacity:1;" offset="0.273437"/><stop style="stop-color:rgb(97.053528%,62.997437%,12.380981%);stop-opacity:1;" offset="0.28125"/><stop style="stop-color:rgb(97.067261%,63.206482%,12.426758%);stop-opacity:1;" offset="0.289062"/><stop style="stop-color:rgb(97.079468%,63.415527%,12.47406%);stop-opacity:1;" offset="0.296875"/><stop style="stop-color:rgb(97.091675%,63.624573%,12.521362%);stop-opacity:1;" offset="0.304688"/><stop style="stop-color:rgb(97.103882%,63.835144%,12.568665%);stop-opacity:1;" offset="0.3125"/><stop style="stop-color:rgb(97.116089%,64.044189%,12.614441%);stop-opacity:1;" offset="0.320312"/><stop style="stop-color:rgb(97.129822%,64.253235%,12.661743%);stop-opacity:1;" offset="0.328125"/><stop style="stop-color:rgb(97.142029%,64.463806%,12.709045%);stop-opacity:1;" offset="0.335938"/><stop style="stop-color:rgb(97.154236%,64.672852%,12.754822%);stop-opacity:1;" offset="0.34375"/><stop style="stop-color:rgb(97.166443%,64.881897%,12.802124%);stop-opacity:1;" offset="0.351562"/><stop style="stop-color:rgb(97.17865%,65.092468%,12.849426%);stop-opacity:1;" offset="0.359375"/><stop style="stop-color:rgb(97.192383%,65.301514%,12.896729%);stop-opacity:1;" offset="0.367187"/><stop style="stop-color:rgb(97.20459%,65.510559%,12.942505%);stop-opacity:1;" offset="0.375"/><stop style="stop-color:rgb(97.216797%,65.719604%,12.989807%);stop-opacity:1;" offset="0.382812"/><stop style="stop-color:rgb(97.229004%,65.930176%,13.037109%);stop-opacity:1;" offset="0.390625"/><stop style="stop-color:rgb(97.241211%,66.139221%,13.084412%);stop-opacity:1;" offset="0.398437"/><stop style="stop-color:rgb(97.254944%,66.348267%,13.130188%);stop-opacity:1;" offset="0.40625"/><stop style="stop-color:rgb(97.267151%,66.558838%,13.17749%);stop-opacity:1;" offset="0.414062"/><stop style="stop-color:rgb(97.279358%,66.767883%,13.224792%);stop-opacity:1;" offset="0.421875"/><stop style="stop-color:rgb(97.291565%,66.976929%,13.272095%);stop-opacity:1;" offset="0.429688"/><stop style="stop-color:rgb(97.297668%,67.234802%,13.33313%);stop-opacity:1;" offset="0.4375"/><stop style="stop-color:rgb(97.299194%,67.546082%,13.409424%);stop-opacity:1;" offset="0.445312"/><stop style="stop-color:rgb(97.299194%,67.861938%,13.487244%);stop-opacity:1;" offset="0.453125"/><stop style="stop-color:rgb(97.299194%,68.177795%,13.566589%);stop-opacity:1;" offset="0.460937"/><stop style="stop-color:rgb(97.299194%,68.493652%,13.644409%);stop-opacity:1;" offset="0.46875"/><stop style="stop-color:rgb(97.299194%,68.807983%,13.722229%);stop-opacity:1;" offset="0.476562"/><stop style="stop-color:rgb(97.299194%,69.12384%,13.800049%);stop-opacity:1;" offset="0.484375"/><stop style="stop-color:rgb(97.299194%,69.439697%,13.879395%);stop-opacity:1;" offset="0.492187"/><stop style="stop-color:rgb(97.299194%,69.755554%,13.957214%);stop-opacity:1;" offset="0.5"/><stop style="stop-color:rgb(97.299194%,70.069885%,14.035034%);stop-opacity:1;" offset="0.507812"/><stop style="stop-color:rgb(97.299194%,70.385742%,14.112854%);stop-opacity:1;" offset="0.515625"/><stop style="stop-color:rgb(97.299194%,70.701599%,14.190674%);stop-opacity:1;" offset="0.523438"/><stop style="stop-color:rgb(97.299194%,71.01593%,14.27002%);stop-opacity:1;" offset="0.53125"/><stop style="stop-color:rgb(97.299194%,71.331787%,14.347839%);stop-opacity:1;" offset="0.539062"/><stop style="stop-color:rgb(97.299194%,71.647644%,14.425659%);stop-opacity:1;" offset="0.546875"/><stop style="stop-color:rgb(97.299194%,71.963501%,14.503479%);stop-opacity:1;" offset="0.554688"/><stop style="stop-color:rgb(97.299194%,72.277832%,14.582825%);stop-opacity:1;" offset="0.5625"/><stop style="stop-color:rgb(97.299194%,72.593689%,14.660645%);stop-opacity:1;" offset="0.570313"/><stop style="stop-color:rgb(97.299194%,72.909546%,14.738464%);stop-opacity:1;" offset="0.578125"/><stop style="stop-color:rgb(97.299194%,73.225403%,14.816284%);stop-opacity:1;" offset="0.585938"/><stop style="stop-color:rgb(97.299194%,73.539734%,14.894104%);stop-opacity:1;" offset="0.59375"/><stop style="stop-color:rgb(97.299194%,73.855591%,14.97345%);stop-opacity:1;" offset="0.601562"/><stop style="stop-color:rgb(97.299194%,74.171448%,15.05127%);stop-opacity:1;" offset="0.609375"/><stop style="stop-color:rgb(97.299194%,74.487305%,15.129089%);stop-opacity:1;" offset="0.617188"/><stop style="stop-color:rgb(97.299194%,74.801636%,15.206909%);stop-opacity:1;" offset="0.625"/><stop style="stop-color:rgb(97.299194%,75.117493%,15.286255%);stop-opacity:1;" offset="0.632812"/><stop style="stop-color:rgb(97.299194%,75.43335%,15.364075%);stop-opacity:1;" offset="0.640625"/><stop style="stop-color:rgb(97.299194%,75.749207%,15.441895%);stop-opacity:1;" offset="0.648438"/><stop style="stop-color:rgb(97.299194%,76.063538%,15.519714%);stop-opacity:1;" offset="0.65625"/><stop style="stop-color:rgb(97.299194%,76.379395%,15.59906%);stop-opacity:1;" offset="0.664063"/><stop style="stop-color:rgb(97.299194%,76.695251%,15.67688%);stop-opacity:1;" offset="0.671875"/><stop style="stop-color:rgb(97.299194%,77.011108%,15.7547%);stop-opacity:1;" offset="0.679688"/><stop style="stop-color:rgb(97.299194%,77.325439%,15.83252%);stop-opacity:1;" offset="0.6875"/><stop style="stop-color:rgb(97.299194%,77.641296%,15.910339%);stop-opacity:1;" offset="0.695312"/><stop style="stop-color:rgb(97.299194%,77.957153%,15.989685%);stop-opacity:1;" offset="0.703125"/><stop style="stop-color:rgb(97.299194%,78.276062%,16.069031%);stop-opacity:1;" offset="0.710938"/><stop style="stop-color:rgb(97.303772%,78.633118%,16.156006%);stop-opacity:1;" offset="0.71875"/><stop style="stop-color:rgb(97.311401%,79.023743%,16.25061%);stop-opacity:1;" offset="0.722656"/><stop style="stop-color:rgb(97.315979%,79.220581%,16.297913%);stop-opacity:1;" offset="0.726562"/><stop style="stop-color:rgb(97.319031%,79.415894%,16.343689%);stop-opacity:1;" offset="0.734375"/><stop style="stop-color:rgb(97.328186%,79.806519%,16.438293%);stop-opacity:1;" offset="0.742188"/><stop style="stop-color:rgb(97.335815%,80.197144%,16.532898%);stop-opacity:1;" offset="0.75"/><stop style="stop-color:rgb(97.343445%,80.587769%,16.627502%);stop-opacity:1;" offset="0.757813"/><stop style="stop-color:rgb(97.3526%,80.978394%,16.722107%);stop-opacity:1;" offset="0.765625"/><stop style="stop-color:rgb(97.360229%,81.369019%,16.816711%);stop-opacity:1;" offset="0.773438"/><stop style="stop-color:rgb(97.367859%,81.759644%,16.90979%);stop-opacity:1;" offset="0.78125"/><stop style="stop-color:rgb(97.377014%,82.150269%,17.004395%);stop-opacity:1;" offset="0.785156"/><stop style="stop-color:rgb(97.381592%,82.347107%,17.051697%);stop-opacity:1;" offset="0.789062"/><stop style="stop-color:rgb(97.384644%,82.542419%,17.098999%);stop-opacity:1;" offset="0.796875"/><stop style="stop-color:rgb(97.392273%,82.933044%,17.193604%);stop-opacity:1;" offset="0.804688"/><stop style="stop-color:rgb(97.399902%,83.323669%,17.288208%);stop-opacity:1;" offset="0.8125"/><stop style="stop-color:rgb(97.409058%,83.714294%,17.382812%);stop-opacity:1;" offset="0.820312"/><stop style="stop-color:rgb(97.416687%,84.104919%,17.475891%);stop-opacity:1;" offset="0.828125"/><stop style="stop-color:rgb(97.424316%,84.495544%,17.570496%);stop-opacity:1;" offset="0.835938"/><stop style="stop-color:rgb(97.433472%,84.886169%,17.6651%);stop-opacity:1;" offset="0.839844"/><stop style="stop-color:rgb(97.438049%,85.083008%,17.712402%);stop-opacity:1;" offset="0.84375"/><stop style="stop-color:rgb(97.441101%,85.27832%,17.759705%);stop-opacity:1;" offset="0.851563"/><stop style="stop-color:rgb(97.44873%,85.668945%,17.854309%);stop-opacity:1;" offset="0.859375"/><stop style="stop-color:rgb(97.457886%,86.05957%,17.947388%);stop-opacity:1;" offset="0.867188"/><stop style="stop-color:rgb(97.465515%,86.450195%,18.041992%);stop-opacity:1;" offset="0.875"/><stop style="stop-color:rgb(97.473145%,86.84082%,18.136597%);stop-opacity:1;" offset="0.882812"/><stop style="stop-color:rgb(97.480774%,87.231445%,18.231201%);stop-opacity:1;" offset="0.890625"/><stop style="stop-color:rgb(97.489929%,87.62207%,18.325806%);stop-opacity:1;" offset="0.894531"/><stop style="stop-color:rgb(97.494507%,87.818909%,18.373108%);stop-opacity:1;" offset="0.898438"/><stop style="stop-color:rgb(97.497559%,88.014221%,18.42041%);stop-opacity:1;" offset="0.90625"/><stop style="stop-color:rgb(97.505188%,88.404846%,18.513489%);stop-opacity:1;" offset="0.914062"/><stop style="stop-color:rgb(97.514343%,88.795471%,18.608093%);stop-opacity:1;" offset="0.921875"/><stop style="stop-color:rgb(97.521973%,89.186096%,18.702698%);stop-opacity:1;" offset="0.929688"/><stop style="stop-color:rgb(97.529602%,89.576721%,18.797302%);stop-opacity:1;" offset="0.9375"/><stop style="stop-color:rgb(97.538757%,89.967346%,18.891907%);stop-opacity:1;" offset="0.945313"/><stop style="stop-color:rgb(97.546387%,90.357971%,18.986511%);stop-opacity:1;" offset="0.949219"/><stop style="stop-color:rgb(97.550964%,90.55481%,19.033813%);stop-opacity:1;" offset="0.953125"/><stop style="stop-color:rgb(97.554016%,90.750122%,19.07959%);stop-opacity:1;" offset="0.960938"/><stop style="stop-color:rgb(97.561646%,91.140747%,19.174194%);stop-opacity:1;" offset="0.96875"/><stop style="stop-color:rgb(97.570801%,91.531372%,19.268799%);stop-opacity:1;" offset="0.976562"/><stop style="stop-color:rgb(97.57843%,91.921997%,19.363403%);stop-opacity:1;" offset="0.984375"/><stop style="stop-color:rgb(97.58606%,92.312622%,19.458008%);stop-opacity:1;" offset="0.992188"/><stop style="stop-color:rgb(97.595215%,92.703247%,19.552612%);stop-opacity:1;" offset="1"/></linearGradient><clipPath xml:id="clip3" id="clip3"><path d="M 237 107.046875 L 337.5 107.046875 L 337.5 268.296875 L 237 268.296875 Z M 237 107.046875 "/></clipPath><clipPath xml:id="clip4" id="clip4"><path d="M 37.5 107.046875 L 138 107.046875 L 138 268.296875 L 37.5 268.296875 Z M 37.5 107.046875 "/></clipPath></defs><g xml:id="surface1" id="surface1"><rect x="0" width="375" y="0" height="374.999991" style="fill:rgb(100%,100%,100%);fill-opacity:1;stroke:none;"/><rect x="0" width="375" y="0" height="374.999991" style="fill:rgb(100%,100%,100%);fill-opacity:1;stroke:none;"/><rect x="0" width="375" y="0" height="374.999991" style="fill:rgb(1.179504%,59.609985%,61.959839%);fill-opacity:1;stroke:none;"/><g clip-rule="nonzero" clip-path="url(#clip1)"><g clip-rule="nonzero" clip-path="url(#clip2)"><path style=" stroke:none;fill-rule:nonzero;fill:url(#linear0);" d="M 137.0625 118.804688 L 137.0625 256.75 L 237.8125 256.75 L 237.8125 118.804688 Z M 137.0625 118.804688 "/></g></g><g clip-rule="nonzero" clip-path="url(#clip3)"><path style=" stroke:none;fill-rule:nonzero;fill:rgb(13.729858%,12.159729%,12.548828%);fill-opacity:1;" d="M 237.8125 116.960938 C 237.8125 116.488281 237.855469 116.015625 237.9375 115.550781 C 238.019531 115.082031 238.144531 114.628906 238.3125 114.183594 C 238.476562 113.738281 238.679688 113.3125 238.921875 112.90625 C 239.164062 112.5 239.4375 112.117188 239.75 111.757812 C 240.058594 111.402344 240.398438 111.074219 240.769531 110.777344 C 241.136719 110.480469 241.53125 110.222656 241.945312 109.996094 C 242.359375 109.773438 242.792969 109.585938 243.242188 109.4375 C 243.691406 109.292969 244.152344 109.1875 244.617188 109.125 C 255.644531 107.699219 266.71875 107.007812 277.835938 107.046875 C 298.445312 107.046875 313.554688 111.800781 323.136719 120.378906 C 331.996094 127.996094 337.273438 139.65625 337.273438 153.9375 C 337.273438 168.457031 332.957031 179.882812 324.777344 188.210938 C 313.75 199.871094 295.765625 205.824219 275.40625 205.824219 C 271.933594 205.824219 268.628906 205.742188 265.546875 205.476562 C 265.101562 205.441406 264.660156 205.453125 264.21875 205.507812 C 263.777344 205.566406 263.347656 205.664062 262.929688 205.8125 C 262.507812 205.957031 262.105469 206.144531 261.726562 206.375 C 261.34375 206.605469 260.992188 206.871094 260.664062 207.175781 C 260.339844 207.480469 260.046875 207.8125 259.789062 208.175781 C 259.53125 208.542969 259.3125 208.929688 259.136719 209.339844 C 258.960938 209.746094 258.824219 210.171875 258.734375 210.609375 C 258.644531 211.046875 258.601562 211.488281 258.601562 211.933594 L 258.601562 262.21875 C 258.605469 262.640625 258.5625 263.058594 258.480469 263.472656 C 258.402344 263.886719 258.28125 264.289062 258.121094 264.679688 C 257.957031 265.070312 257.761719 265.441406 257.527344 265.792969 C 257.292969 266.144531 257.03125 266.46875 256.730469 266.769531 C 256.433594 267.066406 256.109375 267.332031 255.761719 267.566406 C 255.410156 267.804688 255.042969 268 254.652344 268.160156 C 254.265625 268.324219 253.863281 268.445312 253.449219 268.527344 C 253.039062 268.609375 252.621094 268.648438 252.199219 268.648438 L 244.175781 268.648438 C 243.753906 268.648438 243.335938 268.609375 242.921875 268.527344 C 242.511719 268.445312 242.109375 268.324219 241.71875 268.164062 C 241.332031 268 240.960938 267.804688 240.609375 267.570312 C 240.261719 267.335938 239.9375 267.066406 239.636719 266.769531 C 239.339844 266.46875 239.074219 266.144531 238.839844 265.792969 C 238.605469 265.441406 238.40625 265.070312 238.246094 264.679688 C 238.085938 264.289062 237.964844 263.886719 237.882812 263.472656 C 237.800781 263.058594 237.757812 262.640625 237.757812 262.21875 Z M 258.644531 182.140625 C 258.644531 182.53125 258.679688 182.917969 258.75 183.304688 C 258.820312 183.6875 258.921875 184.0625 259.058594 184.425781 C 259.199219 184.792969 259.367188 185.140625 259.566406 185.476562 C 259.769531 185.8125 259.996094 186.125 260.253906 186.417969 C 260.511719 186.710938 260.792969 186.976562 261.101562 187.21875 C 261.40625 187.457031 261.730469 187.667969 262.074219 187.851562 C 262.417969 188.03125 262.777344 188.183594 263.148438 188.296875 C 263.519531 188.414062 263.898438 188.496094 264.28125 188.542969 C 268.144531 188.988281 272.019531 189.195312 275.90625 189.15625 C 301.070312 189.15625 316.414062 177.023438 316.414062 154.886719 C 316.414062 133.699219 301.304688 123.476562 278.308594 123.476562 C 273.636719 123.445312 268.972656 123.675781 264.324219 124.160156 C 263.9375 124.203125 263.554688 124.285156 263.183594 124.398438 C 262.808594 124.515625 262.449219 124.660156 262.105469 124.84375 C 261.757812 125.023438 261.429688 125.234375 261.121094 125.472656 C 260.8125 125.714844 260.53125 125.980469 260.269531 126.273438 C 260.011719 126.566406 259.78125 126.878906 259.578125 127.214844 C 259.375 127.550781 259.203125 127.902344 259.066406 128.265625 C 258.925781 128.632812 258.820312 129.011719 258.75 129.394531 C 258.679688 129.78125 258.644531 130.167969 258.644531 130.5625 Z M 258.644531 182.140625 "/></g><g clip-rule="nonzero" clip-path="url(#clip4)"><path style=" stroke:none;fill-rule:nonzero;fill:rgb(13.729858%,12.159729%,12.548828%);fill-opacity:1;" d="M 128.410156 107.046875 L 122.769531 107.046875 C 122.199219 107.046875 121.632812 107.101562 121.070312 107.214844 C 120.511719 107.328125 119.964844 107.496094 119.4375 107.714844 C 118.910156 107.9375 118.40625 108.207031 117.933594 108.527344 C 117.457031 108.847656 117.015625 109.210938 116.613281 109.617188 C 116.210938 110.023438 115.847656 110.464844 115.53125 110.941406 C 115.214844 111.421875 114.945312 111.925781 114.726562 112.457031 C 114.507812 112.988281 114.34375 113.535156 114.230469 114.097656 C 114.121094 114.660156 114.0625 115.230469 114.0625 115.804688 L 114.0625 243.25 C 114.0625 243.765625 114.011719 244.28125 113.914062 244.789062 C 113.8125 245.300781 113.664062 245.792969 113.464844 246.273438 C 113.265625 246.753906 113.023438 247.207031 112.738281 247.640625 C 112.449219 248.070312 112.121094 248.46875 111.757812 248.835938 C 111.390625 249.203125 110.992188 249.53125 110.5625 249.816406 C 110.132812 250.105469 109.679688 250.347656 109.203125 250.546875 C 108.722656 250.742188 108.230469 250.894531 107.726562 250.992188 C 107.21875 251.09375 106.707031 251.144531 106.191406 251.144531 L 46.472656 251.144531 C 45.902344 251.144531 45.335938 251.199219 44.773438 251.3125 C 44.214844 251.425781 43.667969 251.59375 43.140625 251.8125 C 42.613281 252.035156 42.109375 252.304688 41.636719 252.625 C 41.160156 252.945312 40.71875 253.308594 40.316406 253.714844 C 39.914062 254.121094 39.550781 254.5625 39.234375 255.039062 C 38.917969 255.519531 38.648438 256.023438 38.429688 256.554688 C 38.210938 257.085938 38.046875 257.632812 37.933594 258.195312 C 37.824219 258.757812 37.765625 259.328125 37.765625 259.902344 C 37.765625 260.476562 37.824219 261.046875 37.933594 261.609375 C 38.046875 262.171875 38.210938 262.71875 38.429688 263.25 C 38.648438 263.78125 38.917969 264.285156 39.234375 264.761719 C 39.550781 265.238281 39.914062 265.679688 40.316406 266.085938 C 40.722656 266.492188 41.160156 266.855469 41.636719 267.171875 C 42.113281 267.492188 42.613281 267.761719 43.140625 267.980469 C 43.671875 268.203125 44.214844 268.367188 44.777344 268.480469 C 45.335938 268.589844 45.902344 268.648438 46.472656 268.648438 L 128.410156 268.648438 C 128.980469 268.648438 129.546875 268.589844 130.109375 268.480469 C 130.667969 268.367188 131.214844 268.203125 131.742188 267.980469 C 132.269531 267.761719 132.773438 267.492188 133.246094 267.175781 C 133.722656 266.855469 134.164062 266.492188 134.566406 266.085938 C 134.972656 265.679688 135.332031 265.238281 135.648438 264.761719 C 135.96875 264.285156 136.234375 263.78125 136.453125 263.25 C 136.671875 262.71875 136.839844 262.171875 136.949219 261.609375 C 137.0625 261.046875 137.117188 260.476562 137.117188 259.902344 L 137.117188 115.804688 C 137.117188 115.230469 137.0625 114.660156 136.949219 114.097656 C 136.839844 113.535156 136.671875 112.988281 136.453125 112.457031 C 136.234375 111.925781 135.96875 111.421875 135.648438 110.941406 C 135.332031 110.464844 134.972656 110.023438 134.566406 109.617188 C 134.164062 109.210938 133.722656 108.847656 133.25 108.527344 C 132.773438 108.207031 132.269531 107.9375 131.742188 107.714844 C 131.214844 107.496094 130.667969 107.328125 130.109375 107.214844 C 129.546875 107.101562 128.980469 107.046875 128.410156 107.046875 Z M 128.410156 107.046875 "/></g></g></svg>